# WaveFront *.obj file (generated by Autodesk ATF)

mtllib 793c1d21-55b7-4b4b-9a90-027c1f42c84d.mtl

g Body68

v 300.000000 13.006738 3.000000
v 300.000000 7.006708 3.000000
v 292.790824 6.990489 3.000000
v 292.763931 12.990458 3.000000
v 140.900000 7.009542 4.540524
v 140.900000 7.006089 3.000000
v 147.834176 6.990489 3.000000
v 220.312500 6.990489 75.762553
v 220.312500 6.993262 77.000000
v 213.076431 7.009542 77.000000
v 147.861069 12.990458 3.000000
v 220.312500 12.990458 75.735555
v 220.312500 12.993292 77.000000
v 213.103324 13.009511 77.000000
v 227.548569 7.009542 77.000000
v 227.521676 13.009511 77.000000
v 300.000000 7.009542 4.264445
v 140.900000 13.009511 4.513526
v 300.000000 13.009511 4.237447
v 140.900000 13.006120 3.000000
vt -35.000000 5.499326 0.000000
vt -35.000000 6.099329 0.000000
vt -35.723607 5.500954 0.000000
vt -35.720918 6.100951 0.000000
vt -7.276234 7.941270 0.000000
vt -7.276237 7.247851 0.000000
vt -7.122181 7.941270 0.000000
vt 0.123749 0.723609 0.000000
vt 0.000000 -0.000000 0.000000
vt 0.123745 0.000000 0.000000
vt -0.032729 10.266238 0.000000
vt 0.000000 -0.000000 0.000000
vt 0.567262 10.270048 0.000000
vt 0.600003 -0.000000 0.000000
vt -22.310332 5.499049 0.000000
vt -22.307643 6.099046 0.000000
vt -23.031250 5.500671 0.000000
vt -23.031250 6.100674 0.000000
vt -23.754857 6.099046 0.000000
vt -23.752168 5.499049 0.000000
vt 0.723747 0.000000 0.000000
vt 0.850191 -0.000000 0.000000
vt 0.723743 0.720919 0.000000
vt 8.123729 7.245161 0.000000
vt 7.999980 7.968770 0.000000
vt 8.123725 7.968770 0.000000
vt 0.635876 11.252609 0.000000
vt 0.035873 11.252609 0.000000
vt 0.603260 1.021527 0.000000
vt 0.003269 1.025338 0.000000
vt 0.123745 0.000000 0.000000
vt 0.123749 0.723609 0.000000
vt -0.000000 0.000000 0.000000
vt -7.276237 7.247851 0.000000
vt -7.149789 7.968770 0.000000
vt -7.276233 7.968770 0.000000
vt -0.032729 10.266238 0.000000
vt 0.000000 -0.000000 0.000000
vt 0.567262 10.270048 0.000000
vt 0.600003 0.000000 0.000000
vt 0.003269 1.025338 0.000000
vt 0.603260 1.021527 0.000000
vt 0.035997 11.291576 0.000000
vt 0.636001 11.291576 0.000000
vt 8.123725 7.941270 0.000000
vt 7.972372 7.941270 0.000000
vt 8.123729 7.245161 0.000000
vt 0.723743 0.720919 0.000000
vt 0.850191 -0.000000 0.000000
vt 0.723747 -0.000000 0.000000
vt -50.910000 5.499388 0.000000
vt -50.213893 5.500954 0.000000
vt -50.910000 6.099391 0.000000
vt -50.216582 6.100951 0.000000
vt -3.545948 0.204907 0.000000
vt -3.548647 0.804904 0.000000
vt -3.700000 0.204561 0.000000
vt -3.700000 0.804564 0.000000
vt 3.573555 -0.299046 0.000000
vt 3.700000 -0.299329 0.000000
vt 3.576255 0.300951 0.000000
vt 3.700000 0.300674 0.000000
vn 0.000000 0.000000 -0.100000
vn 0.000000 0.000000 -0.100000
vn 0.000000 0.000000 -0.100000
vn 0.000000 0.000000 -0.100000
vn -0.000225 -0.099999 0.000224
vn -0.000225 -0.099999 0.000224
vn -0.000225 -0.099999 0.000224
vn -0.000225 -0.099999 0.000224
vn -0.000225 -0.099999 0.000224
vn -0.000225 -0.099999 0.000224
vn 0.070849 -0.000318 -0.070572
vn 0.070849 -0.000318 -0.070572
vn 0.070849 -0.000318 -0.070572
vn 0.070849 -0.000318 -0.070572
vn 0.000000 0.000000 0.100000
vn 0.000000 0.000000 0.100000
vn 0.000000 0.000000 0.100000
vn 0.000000 0.000000 0.100000
vn 0.000000 0.000000 0.100000
vn 0.000000 0.000000 0.100000
vn 0.000225 -0.099999 0.000224
vn 0.000225 -0.099999 0.000224
vn 0.000225 -0.099999 0.000224
vn 0.000225 -0.099999 0.000224
vn 0.000225 -0.099999 0.000224
vn 0.000225 -0.099999 0.000224
vn -0.070849 0.000318 0.070572
vn -0.070849 0.000318 0.070572
vn -0.070849 0.000318 0.070572
vn -0.070849 0.000318 0.070572
vn -0.000225 0.099999 -0.000224
vn -0.000225 0.099999 -0.000224
vn -0.000225 0.099999 -0.000224
vn -0.000225 0.099999 -0.000224
vn -0.000225 0.099999 -0.000224
vn -0.000225 0.099999 -0.000224
vn 0.070849 0.000318 0.070572
vn 0.070849 0.000318 0.070572
vn 0.070849 0.000318 0.070572
vn 0.070849 0.000318 0.070572
vn -0.070849 -0.000318 -0.070572
vn -0.070849 -0.000318 -0.070572
vn -0.070849 -0.000318 -0.070572
vn -0.070849 -0.000318 -0.070572
vn 0.000225 0.099999 -0.000224
vn 0.000225 0.099999 -0.000224
vn 0.000225 0.099999 -0.000224
vn 0.000225 0.099999 -0.000224
vn 0.000225 0.099999 -0.000224
vn 0.000225 0.099999 -0.000224
vn 0.000000 0.000000 -0.100000
vn 0.000000 0.000000 -0.100000
vn 0.000000 0.000000 -0.100000
vn 0.000000 0.000000 -0.100000
vn -0.100000 0.000000 0.000000
vn -0.100000 0.000000 0.000000
vn -0.100000 0.000000 0.000000
vn -0.100000 0.000000 0.000000
vn 0.100000 0.000000 0.000000
vn 0.100000 0.000000 0.000000
vn 0.100000 0.000000 0.000000
vn 0.100000 0.000000 0.000000
usemtl Steel_-_Satin
f 1/1/1 2/2/2 4/3/3
f 4/3/3 2/2/2 3/4/4
f 6/5/5 7/6/6 5/7/7
f 5/7/7 7/6/6 10/8/8
f 10/8/8 7/6/6 8/9/9
f 10/8/8 8/9/9 9/10/10
f 11/11/11 12/12/12 7/13/13
f 7/13/13 12/12/12 8/14/14
f 14/15/15 10/16/16 13/17/17
f 13/17/17 10/16/16 9/18/18
f 13/17/17 9/18/18 15/19/19
f 15/19/19 16/20/20 13/17/17
f 2/21/21 17/22/22 3/23/23
f 3/23/23 17/22/22 15/24/24
f 3/23/23 15/24/24 8/25/25
f 8/25/25 15/24/24 9/26/26
f 18/27/27 5/28/28 14/29/29
f 14/29/29 5/28/28 10/30/30
f 1/31/31 4/32/32 19/33/33
f 19/33/33 4/32/32 16/34/34
f 16/34/34 4/32/32 12/35/35
f 16/34/34 12/35/35 13/36/36
f 15/37/37 17/38/38 16/39/39
f 16/39/39 17/38/38 19/40/40
f 4/41/41 3/42/42 12/43/43
f 12/43/43 3/42/42 8/44/44
f 20/45/45 18/46/46 11/47/47
f 11/47/47 18/46/46 14/48/48
f 11/47/47 14/48/48 12/49/49
f 12/49/49 14/48/48 13/50/50
f 20/51/51 11/52/52 6/53/53
f 6/53/53 11/52/52 7/54/54
f 5/55/55 18/56/56 6/57/57
f 6/57/57 18/56/56 20/58/58
f 17/59/59 2/60/60 19/61/61
f 19/61/61 2/60/60 1/62/62
# 20 vertices
# 62 texture params
# 62 normals
# 36 facets

# 1 groups
