# WaveFront *.obj file (generated by Autodesk ATF)

mtllib 0c32b448-ea6f-4907-ae9b-f181ffe1714c.mtl

g Body63

v 300.000000 10.000000 77.000000
v 342.017045 68.000000 77.000000
v 342.017045 68.000000 83.000000
v 300.000000 10.000000 83.000000
v 257.982955 68.000000 77.000000
v 257.982955 68.000000 83.000000
v 261.687440 68.000000 83.000000
v 261.687440 68.000000 77.000000
v 338.312560 68.000000 83.000000
v 300.000000 15.113643 83.000000
v 300.000000 15.113643 77.000000
v 338.312560 68.000000 77.000000
vt 7.367856 0.600000 0.000000
vt 0.205851 0.600000 0.000000
vt 7.367856 -0.000000 0.000000
vt 0.205851 -0.000000 0.000000
vt 7.162005 0.600000 0.000000
vt 0.000000 0.600000 0.000000
vt 7.162005 0.000000 0.000000
vt 0.000000 0.000000 0.000000
vt 0.600000 0.370449 0.000000
vt 0.000000 0.370449 0.000000
vt 0.600000 -0.000000 0.000000
vt 0.000000 0.000000 0.000000
vt 0.600000 19.768756 0.000000
vt 0.600000 20.139205 0.000000
vt -4.688636 15.937500 0.000000
vt -5.200000 15.937500 0.000000
vt 0.600000 11.735795 0.000000
vt 0.600000 12.106244 0.000000
vt 0.000000 0.260999 0.000000
vt 0.600000 0.260999 0.000000
vt 0.000000 6.791557 0.000000
vt 0.600000 6.791557 0.000000
vt 0.000000 11.735795 0.000000
vt 0.600000 11.735795 0.000000
vt 0.000000 12.106244 0.000000
vt 0.600000 12.106244 0.000000
vt 0.000000 11.735795 0.000000
vt 5.800000 15.937500 0.000000
vt 5.288636 15.937500 0.000000
vt 0.000000 20.139205 0.000000
vt 0.000000 19.768756 0.000000
vt 0.000000 12.106244 0.000000
vt 0.000000 0.260999 0.000000
vt 0.600000 0.260999 0.000000
vt 0.000000 6.791557 0.000000
vt 0.600000 6.791557 0.000000
vn 0.080983 -0.058667 0.000000
vn 0.080983 -0.058667 0.000000
vn 0.080983 -0.058667 0.000000
vn 0.080983 -0.058667 0.000000
vn -0.080983 -0.058667 0.000000
vn -0.080983 -0.058667 0.000000
vn -0.080983 -0.058667 0.000000
vn -0.080983 -0.058667 0.000000
vn 0.000000 0.100000 0.000000
vn 0.000000 0.100000 0.000000
vn 0.000000 0.100000 0.000000
vn 0.000000 0.100000 0.000000
vn 0.000000 0.000000 0.100000
vn 0.000000 0.000000 0.100000
vn 0.000000 0.000000 0.100000
vn 0.000000 0.000000 0.100000
vn 0.000000 0.000000 0.100000
vn 0.000000 0.000000 0.100000
vn -0.080983 0.058667 0.000000
vn -0.080983 0.058667 0.000000
vn -0.080983 0.058667 0.000000
vn -0.080983 0.058667 0.000000
vn 0.000000 0.100000 0.000000
vn 0.000000 0.100000 0.000000
vn 0.000000 0.100000 0.000000
vn 0.000000 0.100000 0.000000
vn 0.000000 0.000000 -0.100000
vn 0.000000 0.000000 -0.100000
vn 0.000000 0.000000 -0.100000
vn 0.000000 0.000000 -0.100000
vn 0.000000 0.000000 -0.100000
vn 0.000000 0.000000 -0.100000
vn 0.080983 0.058667 0.000000
vn 0.080983 0.058667 0.000000
vn 0.080983 0.058667 0.000000
vn 0.080983 0.058667 0.000000
usemtl Steel_-_Satin
f 1/1/1 2/2/2 4/3/3
f 4/3/3 2/2/2 3/4/4
f 5/5/5 1/6/6 6/7/7
f 6/7/7 1/6/6 4/8/8
f 5/9/9 6/10/10 8/11/11
f 8/11/11 6/10/10 7/12/12
f 7/13/13 6/14/14 10/15/15
f 10/15/15 6/14/14 4/16/16
f 10/15/15 4/16/16 3/17/17
f 3/17/17 9/18/18 10/15/15
f 11/19/19 10/20/20 12/21/21
f 12/21/21 10/20/20 9/22/22
f 3/23/23 2/24/24 9/25/25
f 9/25/25 2/24/24 12/26/26
f 2/27/27 1/28/28 11/29/29
f 11/29/29 1/28/28 5/30/30
f 11/29/29 5/30/30 8/31/31
f 11/29/29 12/32/32 2/27/27
f 10/33/33 11/34/34 7/35/35
f 7/35/35 11/34/34 8/36/36
g Body64

g Body65

g Body66

v 258.304007 67.556821 83.000000
v 258.304007 67.556821 77.000000
v 262.329546 62.000000 77.000000
v 262.329546 62.000000 83.000000
v 337.670454 62.000000 83.000000
v 337.670454 62.000000 77.000000
v 341.695993 67.556821 77.000000
v 341.695993 67.556821 83.000000
v 258.625060 68.000000 83.000000
v 258.625060 68.000000 77.000000
v 341.374940 68.000000 83.000000
v 341.374940 68.000000 77.000000
vt 7.107280 0.600000 0.000000
vt 6.421108 0.600000 0.000000
vt 7.107280 0.000000 0.000000
vt 6.421108 0.000000 0.000000
vt 0.946748 0.600000 0.000000
vt 0.260576 0.600000 0.000000
vt 0.946748 -0.000000 0.000000
vt 0.260576 -0.000000 0.000000
vt 0.600000 0.054725 0.000000
vt 0.000000 0.054725 0.000000
vt 0.600000 -0.000000 0.000000
vt 0.000000 -0.000000 0.000000
vt 5.500000 19.704545 0.000000
vt 5.500000 12.170455 0.000000
vt 6.055682 20.107099 0.000000
vt 6.055682 11.767901 0.000000
vt 6.100000 11.800006 0.000000
vt 6.100000 20.074994 0.000000
vt 0.000000 6.736832 0.000000
vt 0.600000 6.736832 0.000000
vt 0.000000 6.791557 0.000000
vt 0.600000 6.791557 0.000000
vt -4.900000 19.704545 0.000000
vt -5.455682 20.107099 0.000000
vt -4.900000 12.170455 0.000000
vt -5.455682 11.767901 0.000000
vt -5.500000 11.800006 0.000000
vt -5.500000 20.074994 0.000000
vt 0.600000 7.598301 0.000000
vt 0.000000 7.598301 0.000000
vt 0.600000 0.064211 0.000000
vt 0.000000 0.064211 0.000000
vt 0.600000 8.274988 0.000000
vt -0.000000 8.274988 0.000000
vt 0.600000 -0.000000 0.000000
vt 0.000000 -0.000000 0.000000
vn -0.080983 -0.058667 0.000000
vn -0.080983 -0.058667 0.000000
vn -0.080983 -0.058667 0.000000
vn -0.080983 -0.058667 0.000000
vn 0.080983 -0.058667 0.000000
vn 0.080983 -0.058667 0.000000
vn 0.080983 -0.058667 0.000000
vn 0.080983 -0.058667 0.000000
vn -0.080983 0.058667 0.000000
vn -0.080983 0.058667 0.000000
vn -0.080983 0.058667 0.000000
vn -0.080983 0.058667 0.000000
vn 0.000000 0.000000 0.100000
vn 0.000000 0.000000 0.100000
vn 0.000000 0.000000 0.100000
vn 0.000000 0.000000 0.100000
vn 0.000000 0.000000 0.100000
vn 0.000000 0.000000 0.100000
vn 0.080983 0.058667 0.000000
vn 0.080983 0.058667 0.000000
vn 0.080983 0.058667 0.000000
vn 0.080983 0.058667 0.000000
vn 0.000000 0.000000 -0.100000
vn 0.000000 0.000000 -0.100000
vn 0.000000 0.000000 -0.100000
vn 0.000000 0.000000 -0.100000
vn 0.000000 0.000000 -0.100000
vn 0.000000 0.000000 -0.100000
vn 0.000000 -0.100000 0.000000
vn 0.000000 -0.100000 0.000000
vn 0.000000 -0.100000 0.000000
vn 0.000000 -0.100000 0.000000
vn 0.000000 0.100000 0.000000
vn 0.000000 0.100000 0.000000
vn 0.000000 0.100000 0.000000
vn 0.000000 0.100000 0.000000
f 14/37/37 15/38/38 13/39/39
f 13/39/39 15/38/38 16/40/40
f 18/41/41 19/42/42 17/43/43
f 17/43/43 19/42/42 20/44/44
f 14/45/45 13/46/46 22/47/47
f 22/47/47 13/46/46 21/48/48
f 16/49/49 17/50/50 13/51/51
f 13/51/51 17/50/50 20/52/52
f 13/51/51 20/52/52 23/53/53
f 23/53/53 21/54/54 13/51/51
f 20/55/55 19/56/56 23/57/57
f 23/57/57 19/56/56 24/58/58
f 15/59/59 14/60/60 18/61/61
f 18/61/61 14/60/60 19/62/62
f 19/62/62 14/60/60 24/63/63
f 24/63/63 14/60/60 22/64/64
f 16/65/65 15/66/66 17/67/67
f 17/67/67 15/66/66 18/68/68
f 22/69/69 21/70/70 24/71/71
f 24/71/71 21/70/70 23/72/72
# 24 vertices
# 72 texture params
# 72 normals
# 40 facets

# 4 groups
